<svg width="112" height="112" viewBox="0 0 112 112" fill="none" xmlns="http://www.w3.org/2000/svg">
<rect width="112" height="112" rx="24" fill="#008281"/>
<path d="M87.1156 32.3771C77.2809 35.0148 65.7505 36.1452 55.0867 36.1452C44.423 36.1452 32.8926 35.0148 23.0579 32.3771L21.1738 39.9133C28.1825 41.7973 36.2462 43.0408 43.7824 43.6814V92.6667H51.3186V70.0581H58.8548V92.6667H66.391V43.6814C73.9272 43.0408 81.991 41.7973 88.9997 39.9133L87.1156 32.3771ZM55.0867 32.3771C59.2317 32.3771 62.6229 28.9858 62.6229 24.8409C62.6229 20.696 59.2317 17.3047 55.0867 17.3047C50.9418 17.3047 47.5505 20.696 47.5505 24.8409C47.5505 28.9858 50.9418 32.3771 55.0867 32.3771Z" fill="white"/>
</svg>
