<svg width="112" height="112" viewBox="0 0 112 112" fill="none" xmlns="http://www.w3.org/2000/svg">
<rect width="112" height="112" rx="24" fill="black"/>
<g clip-path="url(#clip0)">
<path d="M55.6014 72.666C59.9107 72.666 63.7507 71.0021 66.78 68.3994H44.4229C47.4522 71.0021 51.2921 72.666 55.6014 72.666Z" fill="white"/>
<path d="M40.9204 64.1343H70.3175C71.4268 62.2143 72.1948 60.0384 72.4934 57.7344H38.7871C39.0431 60.0384 39.7684 62.2143 40.9204 64.1343Z" fill="white"/>
<path d="M55.6014 38.5342C51.2921 38.5342 47.4522 40.1982 44.4229 42.8008H66.78C63.7507 40.1982 59.9107 38.5342 55.6014 38.5342Z" fill="white"/>
<path d="M40.9221 47.0664C39.8128 48.9864 39.0448 51.1624 38.7461 53.4663H72.4524C72.1537 51.1624 71.4284 48.9864 70.2764 47.0664H40.9221Z" fill="white"/>
<path d="M85.4662 17.2012H25.7334C21.0402 17.2012 17.2002 21.0411 17.2002 25.7344V85.4671C17.2002 90.1604 21.0402 94.0004 25.7334 94.0004H85.4662C90.1594 94.0004 93.9994 90.1604 93.9994 85.4671V25.7344C93.9994 21.0411 90.1594 17.2012 85.4662 17.2012ZM55.5998 81.2005C41.4773 81.2005 30.0001 69.7233 30.0001 55.6008C30.0001 41.4783 41.4773 30.001 55.5998 30.001C69.7223 30.001 81.1995 41.4783 81.1995 55.6008C81.1995 69.7233 69.7223 81.2005 55.5998 81.2005Z" fill="white"/>
</g>
<defs>
<clipPath id="clip0">
<rect width="67.2" height="67.2" fill="white" transform="translate(22 22)"/>
</clipPath>
</defs>
</svg>
