<svg width="112" height="112" viewBox="0 0 112 112" fill="none" xmlns="http://www.w3.org/2000/svg">
<rect width="112" height="112" rx="24" fill="#003F9D"/>
<path d="M58.6628 41.6846C55.4454 41.6846 52.8389 44.2911 52.8389 47.5085C52.8389 50.7259 55.4454 53.3324 58.6628 53.3324C61.8802 53.3324 64.4867 50.7259 64.4867 47.5085C64.4867 44.2911 61.8802 41.6846 58.6628 41.6846Z" fill="white"/>
<path d="M58.6612 19C43.3887 19 30.9671 30.9736 30.234 46.0425L22.4145 56.4685C21.3963 57.8125 22.3738 59.7266 24.0436 59.7266H30.1526V71.9446C30.1526 76.4246 33.818 80.09 38.2979 80.09H42.3706V92.308H70.8792V73.2479C80.4907 68.6865 87.1699 58.8714 87.1699 47.5087C87.1699 31.7474 74.4224 19 58.6612 19ZM70.8792 47.5087C70.8792 48.0381 70.8385 48.5675 70.7978 49.097L74.1781 51.785C74.5039 52.0293 74.5853 52.4366 74.3817 52.8031L71.1236 58.4641C70.9199 58.8307 70.4719 58.9528 70.1461 58.8307L66.1142 57.2016C65.2589 57.8532 64.363 58.3827 63.3855 58.7899L62.7339 63.107C62.6932 63.5142 62.3266 63.7993 61.9194 63.7993H55.4031C54.9958 63.7993 54.67 63.5142 54.5886 63.107L53.9777 58.7899C52.9595 58.3827 52.0635 57.8532 51.2082 57.2016L47.1763 58.8307C46.8098 58.9528 46.3618 58.8307 46.1581 58.4641L42.9 52.8031C42.6964 52.4773 42.7778 52.0293 43.1036 51.785L46.5247 49.097C46.484 48.5675 46.4432 48.0381 46.4432 47.5087C46.4432 46.9792 46.5247 46.409 46.6061 45.9203L43.1444 43.2324C42.8186 42.988 42.7371 42.5807 42.9407 42.1735L46.1989 36.5532C46.4025 36.1866 46.8098 36.0645 47.1763 36.1866L51.249 37.8157C52.0635 37.2048 53.0002 36.6346 53.9777 36.2274L54.5886 31.9103C54.67 31.5031 54.9958 31.218 55.4031 31.218H61.9194C62.3266 31.218 62.6524 31.5031 62.7339 31.9103L63.3448 36.2274C64.3222 36.6346 65.2182 37.1641 66.0735 37.8157L70.1461 36.1866C70.5127 36.0645 70.9607 36.1866 71.1236 36.5532L74.3817 42.1735C74.5853 42.54 74.5039 42.988 74.1781 43.2324L70.7163 45.9203C70.8385 46.409 70.8792 46.9385 70.8792 47.5087Z" fill="white"/>
</svg>
