<svg xmlns="http://www.w3.org/2000/svg" viewBox="0 0 430.73 412.75"><defs><style>.cls-1,.cls-3,.cls-4,.cls-6{fill:#fff;}.cls-1,.cls-4,.cls-6{stroke:#fff;stroke-miterlimit:10;}.cls-1{stroke-width:3px;}.cls-2{fill:#1300d4;}.cls-4{stroke-width:2px;}.cls-5{fill:none;}</style></defs><g id="Layer_2" data-name="Layer 2"><g id="Layer_1-2" data-name="Layer 1"><path class="cls-1" d="M199.36,374c-35.14-3.74-65.89-15.9-92.84-36.46-.59.22-1.13.26-1.26.5-8.23,15.14-22.09,14.54-38,11.68,0-6.91-.16-14.34.14-21.75.06-1.49,1.63-3.16,2.93-4.3,3.61-3.18,7.45-6.12,11.47-9.38C59,287.61,45.67,257.57,41.54,223.13c-4.86.36-9.53,1.07-14.15.89a12.64,12.64,0,0,1-7.32-2.77c-5.13-4.56-9.77-9.63-14.63-14.52,4.64-4.7,9.52-9.28,13.93-14.24,2.69-3,5.56-3.88,9.5-3.26s7.9.72,12.4,1.09A166.63,166.63,0,0,1,81,97.81c-.31-.69-.36-1.2-.61-1.32C64,88.67,68.23,74.72,69,61.61c2,0,3.82,0,5.64,0,6.09-.09,12.83-1.8,18.09.15s8.75,7.54,13.56,12c26.8-20.48,57.64-32.85,92.8-36.57-.3-4.29-1-8.41-.75-12.49a10.76,10.76,0,0,1,2.61-6.59c4.9-5,10.29-9.61,15.42-14.31,4.71,4.31,9.18,8.79,14.1,12.76,3.62,2.91,5,6,4,10.49-.67,3-.59,6.16-.91,10,35.21,3.72,66.73,15.88,94.15,37.15.77-.46,1.45-.63,1.68-1,5.76-10.33,14.89-12.85,26.24-10.82,2.88.51,5.94.07,9.76.07,0,7.06.17,14.55-.12,22a8.22,8.22,0,0,1-2.64,5c-3,2.81-6.33,5.23-10.11,8.28,22.64,26.88,36.05,57.43,39.71,92.5,4.42-.35,8.52-1.07,12.57-.86a12.79,12.79,0,0,1,7.32,2.7c5.15,4.56,9.8,9.65,15.14,15a34.53,34.53,0,0,0-4.08,3.4c-8,8.95-15.67,18.68-29.1,12.59-5.16,16.64-8.72,33-15.39,48.17s-16.47,29.07-25.34,44.29c2,1.66,5.61,4.09,8.45,7.16a13.2,13.2,0,0,1,3.41,7.34c.47,6.36.15,12.78.15,20.57-8.66,0-16.76.13-24.84-.13-1.34,0-2.81-1.64-3.9-2.8-3-3.26-5.88-6.67-9.15-10.41-27.6,21-58.66,33.25-94,36.8.42,4.84,1.15,9.34,1.07,13.82a10.48,10.48,0,0,1-2.51,6.62c-4.91,5.05-10.3,9.66-15.56,14.49-4.74-4.32-9.35-8.9-14.39-13-3.31-2.67-4.45-5.52-3.78-9.54S199,378.48,199.36,374Zm-94-40c28.51,22.29,60.3,34.74,96.21,38.17-.44,5.55-1,10.62-1.18,15.7-.07,1.51.1,3.54,1.07,4.49,4.71,4.66,9.74,9,14.83,13.67,4.7-4.25,9.13-7.76,12.86-11.85a12.58,12.58,0,0,0,3-7.5c.17-4.67-.65-9.37-1.09-14.47,36.39-3.28,68.34-15.85,96.57-37.8,3.51,4,6.62,7.63,9.9,11.15,1.08,1.17,2.55,2.76,3.9,2.81,6.95.28,13.93.13,21.7.13,0-6.6.35-12.09-.16-17.5a13.06,13.06,0,0,0-3.39-7.33c-3.17-3.29-7.08-5.92-11-9.06,24-27.27,37.62-58.31,41.5-93.59,5.25.39,9.94.84,14.65,1,1.58.06,3.7-.1,4.7-1,4.87-4.54,9.43-9.37,14.22-14.21a58.14,58.14,0,0,1-4.64-4.91c-6.21-8.42-13.89-13.12-25.06-9.67a15,15,0,0,1-3.72,0c-3.43-35.72-17-67.18-40.85-94.75,3.88-3.15,7.45-5.86,10.77-8.83,1.28-1.14,2.77-2.83,2.85-4.33.31-6.35.13-12.71.13-19.09-13-1.54-25.36-4.16-32.37,9.52-.51,1-1.14,1.91-1.86,3.11C300,55,267.71,42.33,231.21,39c.45-5,1-9.32,1.16-13.68.07-1.67-.21-3.88-1.29-5-4.6-4.58-9.55-8.84-14.74-13.55-5.12,4.68-11.58,8.3-14.22,13.66-2.54,5.16-1.13,12.12-1.47,18.71a178.88,178.88,0,0,0-95.12,37.93c-3.4-3.86-6.46-7.56-9.8-11-1.18-1.22-3-2.55-4.57-2.62-6.6-.29-13.21-.13-20.82-.13,0,6.86-.24,12.67.13,18.45a9.93,9.93,0,0,0,2.81,6c3.43,3.3,7.38,6.1,11.29,9.25-24.44,27.92-37.9,59.59-41.4,95.57-5.53-.46-10.42-1-15.33-1.22-1.6-.08-3.79-.08-4.77.83-5,4.64-9.7,9.58-15.73,15.65,5.83,5,10.4,11.05,16.54,13.54,5.44,2.21,12.61.47,19.65.47C47.18,256.28,61,287.4,84.77,314.53c-4.51,3.64-8.49,6.75-12.33,10-1.21,1-2.83,2.45-2.89,3.75-.29,6.66-.13,13.35-.13,19.07,15.32,4.2,27,2.11,34.29-11C104.07,335.68,104.58,335.12,105.41,334Z"/><path class="cls-2" d="M214.66,407.85c-1.34-1.22-2.66-2.41-4-3.6-3.8-3.43-7.4-6.67-10.92-10.14-1.67-1.65-1.91-4.38-1.81-6.39.17-3.7.48-7.35.81-11.22l.18-2.13c-34.92-3.74-65.39-15.82-93-36.85v0c-5.35,9.61-13.1,14.29-23.72,14.29a51,51,0,0,1-13.42-2l-1.84-.51v-1.91c0-1.43,0-2.92,0-4.46,0-4.53-.07-9.67.16-14.72.1-2.42,2.3-4.3,3.76-5.54,2.76-2.36,5.61-4.64,8.63-7l1.74-1.4c-22.51-26.44-35.92-56.64-39.89-89.83-1.39.06-2.79.17-4.15.28-2.08.16-4.23.32-6.28.32a20.63,20.63,0,0,1-7.93-1.3c-4.7-1.91-8.35-5.48-12.21-9.26-1.61-1.58-3.28-3.21-5-4.7l-2-1.75,1.9-1.91,4.61-4.67c4-4.09,7.49-7.63,11.19-11,1.13-1.05,2.81-1.53,5.3-1.53.45,0,.89,0,1.3,0,3.55.18,7.08.49,10.81.82l2.16.19c3.87-35.17,17-65.49,40-92.52l-1.35-1.06a99,99,0,0,1-8.07-6.74A12.4,12.4,0,0,1,68,81.93c-.27-4.19-.23-8.41-.18-12.87,0-1.85,0-3.75,0-5.75v-2.5h2.5l6.07,0,5.47,0c3.78,0,6.67,0,9.39.17s5.31,2.4,6.26,3.38c2.42,2.51,4.66,5.09,7,7.82l1.31,1.5a182,182,0,0,1,92.34-36.78c0-1.27,0-2.55-.08-3.81-.14-4.73-.29-9.61,1.74-13.73S206,12,209.83,8.9c1.63-1.28,3.31-2.6,4.82-4l1.68-1.54L218,4.91c1.4,1.28,2.79,2.52,4.16,3.74,3.74,3.35,7.27,6.5,10.66,9.89,2,2,2.08,5.43,2,6.82-.11,3.17-.43,6.31-.77,9.63,0,.57-.11,1.14-.17,1.72,35.47,3.7,66.4,16,94.4,37.46q.17-.28.3-.57c5.59-10.88,14.54-12.14,20.79-12.14a94.72,94.72,0,0,1,11.44,1c.88.11,1.77.23,2.67.33l2.2.26v2.22c0,1.71,0,3.41,0,5.11,0,4.61.07,9.39-.17,14.1-.09,1.94-1.33,4-3.68,6.08s-4.91,4.14-7.56,6.26l-1.29,1c22.53,26.77,35.82,57.7,39.53,92h.28a2,2,0,0,0,.44,0,26.5,26.5,0,0,1,7.78-1.25c7.61,0,14.16,3.87,20,11.83a25,25,0,0,0,2.61,2.82c.58.57,1.19,1.17,1.83,1.85l1.68,1.75-1.71,1.73-3.72,3.79c-3.41,3.49-6.94,7.1-10.57,10.48-1.22,1.14-3.18,1.72-5.83,1.72l-.67,0c-3.41-.12-6.8-.39-10.38-.68l-2-.15c-4.22,34.32-17.35,64-40.1,90.57l1.39,1.07a66.46,66.46,0,0,1,7.76,6.6,15.41,15.41,0,0,1,4.08,8.83,109.21,109.21,0,0,1,.23,12.07c0,1.81-.06,3.68-.06,5.66V351h-2.5l-6,0-5.54,0c-4.15,0-7.32-.05-10.28-.17-2.36-.1-4.23-2.11-5.6-3.57-2.38-2.56-4.63-5.14-7-7.87l-1.4-1.62c-27.73,21.05-58.37,33.06-93.51,36.65.07.66.14,1.31.22,2a71.42,71.42,0,0,1,.64,10.36,15.14,15.14,0,0,1-3.66,9.09,107.7,107.7,0,0,1-9,8.4c-1.33,1.17-2.69,2.36-4.08,3.61l-1.68,1.52Zm16.26-63.48c28.88-3,53.92-12.73,76.38-29.75l-46.9-53.84a76.84,76.84,0,0,1-35.92,14.32ZM126,314.47a147.41,147.41,0,0,0,75.82,29.77l6.35-68.65c-1.57-.4-3.12-.78-4.63-1.15a112.23,112.23,0,0,1-14-4A111.58,111.58,0,0,1,176.53,264c-1.45-.78-2.94-1.59-4.47-2.4ZM328.28,295c18.7-21.87,29.49-46.16,32.93-74.11l-73.7-6.3A70.25,70.25,0,0,1,272,249.82ZM72.36,220.8a136.26,136.26,0,0,0,32.9,74.11l55.48-44.56c-8.56-10-13.86-21.77-16.14-35.75Zm144-64.69c-28.71,0-52.17,22.37-52.29,49.87a49.38,49.38,0,0,0,15,35.73,52.93,52.93,0,0,0,36.85,15h.48c28.95,0,52.53-22.53,52.56-50.23A48.93,48.93,0,0,0,253.75,171a53.52,53.52,0,0,0-37.08-14.87Zm55.61,6.77a70.47,70.47,0,0,1,15.69,35.89l73.87-6.28C358.26,163.72,347.61,139,329,117ZM144.51,198.75c4.14-18.76,5.74-22.35,16.66-37.06L105,116.57c-19.15,22.61-29.91,47.53-32.83,76Zm80-61.16c13.72,2,25.49,6.69,35.85,14.33l47.74-54.83a147.79,147.79,0,0,0-77-30.25ZM173.11,151c10.17-7.24,21.71-11.67,35.15-13.48l-6.6-70.61a147.32,147.32,0,0,0-75.75,29.85Z"/><path class="cls-3" d="M216.34,6.76c5.19,4.71,10.14,9,14.74,13.55,1.08,1.08,1.36,3.29,1.29,5-.16,4.36-.71,8.71-1.16,13.68C267.71,42.33,300,55,329,77.86c.72-1.2,1.35-2.13,1.86-3.11,4.44-8.67,11-10.79,18.56-10.79a123.29,123.29,0,0,1,13.81,1.27c0,6.38.18,12.74-.13,19.09-.08,1.5-1.57,3.19-2.85,4.33-3.32,3-6.89,5.68-10.77,8.83,23.87,27.57,37.42,59,40.85,94.75,1,0,1.8.1,2.54.1a4.11,4.11,0,0,0,1.18-.14,23.72,23.72,0,0,1,7-1.14c7.52,0,13.21,4.29,18,10.81a58.14,58.14,0,0,0,4.64,4.91c-4.79,4.84-9.35,9.67-14.22,14.21-.88.82-2.64,1-4.13,1h-.57c-4.71-.18-9.4-.63-14.65-1-3.88,35.28-17.52,66.32-41.5,93.59,3.88,3.14,7.79,5.77,11,9.06A13.06,13.06,0,0,1,363,331c.51,5.41.16,10.9.16,17.5-4,0-7.83,0-11.53,0-3.46,0-6.82,0-10.17-.17-1.35,0-2.82-1.64-3.9-2.81-3.28-3.52-6.39-7.17-9.9-11.15-28.23,21.94-60.18,34.52-96.57,37.8.44,5.1,1.26,9.8,1.09,14.47a12.58,12.58,0,0,1-3,7.5c-3.73,4.09-8.16,7.6-12.86,11.85-5.09-4.64-10.12-9-14.83-13.67-1-.95-1.14-3-1.07-4.49.23-5.08.74-10.15,1.18-15.7-35.91-3.43-67.7-15.88-96.21-38.17-.83,1.15-1.34,1.71-1.7,2.36-5.12,9.21-12.37,13-21.53,13a48.73,48.73,0,0,1-12.76-2c0-5.72-.16-12.41.13-19.07.06-1.3,1.68-2.72,2.89-3.75,3.84-3.27,7.82-6.38,12.33-10C61,287.4,47.18,256.28,43.53,221.82c-4.31,0-8.67.65-12.66.65a18.4,18.4,0,0,1-7-1.12c-6.14-2.49-10.71-8.54-16.54-13.54,6-6.07,10.72-11,15.73-15.65.75-.7,2.23-.86,3.6-.86q.61,0,1.17,0c4.91.26,9.8.76,15.33,1.22,3.5-36,17-67.65,41.4-95.57-3.91-3.15-7.86-6-11.29-9.25a9.93,9.93,0,0,1-2.81-6c-.37-5.78-.13-11.59-.13-18.45,4.08,0,7.88,0,11.54,0,3.16,0,6.22,0,9.28.17,1.58.07,3.39,1.4,4.57,2.62,3.34,3.44,6.4,7.14,9.81,11a178.82,178.82,0,0,1,95.11-37.93c.34-6.59-1.07-13.55,1.47-18.71,2.64-5.36,9.1-9,14.22-13.66M260.7,155.33l51-58.6c-24.41-19.11-51.5-30-82.93-32.61-2.35,25.41-4.66,50.27-7,75.63,14.53,1.75,27.31,6.47,38.91,15.58m-88-.94c11.35-8.61,24-13.1,38.24-14.66-2.37-25.35-4.7-50.2-7.07-75.53a150.47,150.47,0,0,0-81.63,32.22l50.46,58m-26.25,47c4.6-21.14,5.68-23.53,18.13-40.18l-60-48.14C83.81,137,72.1,163.8,69.42,194.88l77.07,6.55m139,0,78.8-6.71c-3-31-14.38-57.68-34.94-81.19l-60.94,49a68.26,68.26,0,0,1,17.08,38.93m-69.08,57.75c30.32,0,55-23.61,55.06-52.72s-24.3-52.7-54.73-52.89h-.37c-30.25,0-54.66,23.29-54.79,52.36-.13,29.33,24,53,54.33,53.25h.5M105,298.36l59.39-47.7c-10.38-11.31-15.64-24.22-17.62-38.76l-77.15,6.63c3.34,30.7,15,56.84,35.38,79.83m223.63.12C349,275.26,360.75,249.14,364,218.64l-78.64-6.72a68.07,68.07,0,0,1-16.92,38.24l60.17,48.32M228.67,347.1C260,344.31,287,333.77,310.93,315l-50.18-57.61c-11.63,9.08-24.36,13.93-39,15.55,2.32,25,4.59,49.42,6.9,74.18M204.1,347c2.33-25.14,4.58-49.44,6.79-73.25-7.36-2-14.12-3.21-20.39-5.63s-12.09-6-19-9.58L122.4,314.84c24.26,18.87,51,29.48,81.7,32.12M216.32,0,213,3.07c-1.44,1.32-3,2.56-4.68,3.87-4.09,3.21-8.32,6.54-10.65,11.27s-2.15,9.88-2,14.91c0,.51,0,1,.05,1.51a184.24,184.24,0,0,0-89.45,35.61c-2.32-2.66-4.51-5.18-6.91-7.66-1.43-1.48-4.36-4-7.94-4.14-2.76-.12-5.69-.17-9.5-.17l-5.49,0-6,0h-5v5c0,2,0,3.88,0,5.72,0,4.51-.09,8.78.18,13.06a14.94,14.94,0,0,0,4.33,9.24,96.24,96.24,0,0,0,7.58,6.38,169.55,169.55,0,0,0-38.65,89.44c-3.66-.32-7.13-.63-10.64-.81-.52,0-1,0-1.43,0-2,0-4.87.23-7,2.19-3.74,3.47-7.23,7-11.27,11.13l-4.61,4.67L0,208.1l4.08,3.5c1.68,1.44,3.32,3,4.9,4.59,3.87,3.79,7.87,7.7,13,9.79a23,23,0,0,0,8.88,1.49c2.15,0,4.34-.17,6.47-.33l1.77-.13c4.26,31.94,17.2,61.11,38.52,86.84-2.94,2.35-5.72,4.58-8.43,6.9-1.68,1.43-4.49,3.82-4.64,7.33-.23,5.12-.19,10.29-.16,14.85,0,1.53,0,3,0,4.44v3.82l3.68,1a53.26,53.26,0,0,0,14.08,2.12c10.52,0,18.72-4.42,24.44-13.14,26.76,19.81,56.18,31.43,89.61,35.41-.32,3.78-.62,7.36-.79,11-.12,2.51.23,6,2.55,8.28,3.56,3.51,7.35,6.92,11,10.21l4,3.6,3.35,3.05,3.36-3c1.37-1.24,2.73-2.43,4.05-3.58a109,109,0,0,0,9.16-8.61,17.47,17.47,0,0,0,4.3-10.68,68.69,68.69,0,0,0-.59-10.2,189.58,189.58,0,0,0,47.68-11.71A186.36,186.36,0,0,0,327,341.18c2.35,2.69,4.58,5.24,6.93,7.76,1.59,1.71,4,4.26,7.35,4.4,3,.12,6.19.17,10.38.17l5.55,0,6,0h5v-5c0-2,0-3.81.06-5.62A112.15,112.15,0,0,0,368,330.5a18,18,0,0,0-4.77-10.33,66,66,0,0,0-7.35-6.32,175.08,175.08,0,0,0,25.65-41,172,172,0,0,0,13-46.47c3.46.27,6.75.53,10.09.65l.75,0c3.31,0,5.84-.8,7.54-2.39,3.67-3.42,7.22-7,10.65-10.56,1.23-1.25,2.47-2.52,3.72-3.78l3.42-3.46-3.36-3.51c-.68-.71-1.32-1.34-1.88-1.89a22.74,22.74,0,0,1-2.35-2.53c-6.38-8.65-13.59-12.85-22.05-12.85a27.68,27.68,0,0,0-6.33.76,171.28,171.28,0,0,0-12.6-47,175.34,175.34,0,0,0-25.55-41.64c2.42-1.94,4.73-3.79,7-5.8,2.86-2.56,4.38-5.19,4.51-7.82.24-4.78.2-9.59.17-14.24,0-1.69,0-3.39,0-5.09V60.79l-4.41-.52-2.65-.33a97.47,97.47,0,0,0-11.75-1c-6.5,0-15.65,1.24-21.88,11.48-27.11-20.2-56.94-32-90.87-35.95.31-3.09.59-6,.7-9,.08-2.14-.17-6.11-2.76-8.69-3.45-3.44-7-6.62-10.77-10L219.7,3.06,216.32,0ZM227.2,135.48l2.89-31.23,3.21-34.66a144.93,144.93,0,0,1,71.14,27.89l-36,41.38L260,148.57a79.81,79.81,0,0,0-32.75-13.09Zm-97.64-38.3A144.5,144.5,0,0,1,199.4,69.69l6.15,65.72a78.94,78.94,0,0,0-32,12.28l-44-50.51ZM74.92,190.33c3.14-26.16,13.13-49.23,30.41-70.27l52.41,42.07c-9.45,12.88-11.49,17.5-15.19,34l-44-3.74-23.64-2Zm200.51-27.06,15.21-12.22,38-30.53a133.9,133.9,0,0,1,30.06,69.7L302.85,195l-13.11,1.11a72.38,72.38,0,0,0-14.31-32.81Zm-59.07,90.95h-.46a50.45,50.45,0,0,1-35.12-14.3A46.85,46.85,0,0,1,166.53,206a46.3,46.3,0,0,1,14.55-33.49,50.69,50.69,0,0,1,35.24-13.89h.34A51,51,0,0,1,252,172.78a46.45,46.45,0,0,1,14.41,33.71c0,26.32-22.49,47.73-50.06,47.73ZM75.18,223.07,99,221l43.54-3.74A73.13,73.13,0,0,0,157.2,250l-33.49,26.9L105.6,291.44a133.34,133.34,0,0,1-30.42-68.37Zm200.31,26.35a72.2,72.2,0,0,0,14.12-32.12l22.6,1.93,46.18,4c-3.6,25.59-13.6,48-30.45,68.36l-52.45-42.12Zm-48.3,27.8A78.77,78.77,0,0,0,260,264.13l43.63,50.1c-20.87,15.27-44,24.26-70.46,27.38l-6-64.39Zm-97.5,36.86L156.77,283l15.87-18.22,2.69,1.46a114.4,114.4,0,0,0,13.37,6.53A114,114,0,0,0,203,276.87l2.52.62L202,315.22l-2.43,26.26a144.61,144.61,0,0,1-69.9-27.4Z"/><path class="cls-4" d="M161.53,206c.13-29.19,24.74-52.55,55.16-52.36s54.77,23.7,54.73,52.89-25,53-55.56,52.72C185.55,259,161.4,235.3,161.53,206Zm2.07-.29c-.45,27.88,22.84,51,51.82,51.45,29.13.45,53.26-21.76,53.83-49.52.57-28.54-22.75-51.67-52.4-52C187.78,155.35,164.05,177.65,163.6,205.68Z"/><path class="cls-4" d="M211,139.73c-14.21,1.56-26.89,6.05-38.24,14.66l-50.46-58A150.47,150.47,0,0,1,203.91,64.2C206.28,89.53,208.61,114.38,211,139.73Zm-2.36-2.4c-2.19-23.42-4.4-47-6.64-71-29,3.18-54.17,13.09-76.62,30.39L172.6,151c6.27-3.08,11.49-6.15,17.11-8.27C195.49,140.53,201.66,139.26,208.62,137.33Z"/><path class="cls-5" d="M163.6,205.68c.45-28,24.18-50.33,53.25-50,29.65.3,53,23.43,52.4,52-.57,27.76-24.7,50-53.83,49.52C186.44,256.69,163.15,233.56,163.6,205.68Zm69.22.39c0-8.54-7-15.36-15.87-15.51a15.87,15.87,0,0,0-16.4,15.59c0,8.43,7.12,15.38,15.91,15.54C225.42,221.84,232.84,214.76,232.82,206.07Zm-18.5-45.79L184,171.84c6.24,6,11.87,11.67,17.78,17,2.77,2.5,12.42-1.57,12.52-5.25C214.47,176.14,214.32,168.66,214.32,160.28Zm38.13,14.23c-6.37,6.33-12.13,11.82-17.59,17.58-2.59,2.74,1.7,11.89,5.59,12,7.73.2,15.47.06,24.22.06C260.56,194.16,256.76,185,252.45,174.51Zm-33-14.49c0,8.7-.19,16.47.09,24.23.12,3.4,9.77,7.22,12.35,4.89,5.75-5.21,11.2-10.73,17.42-16.75Zm-50.28,49c4.18,10.15,8,19.34,12.2,29.58,6.37-6.29,12.23-11.52,17.24-17.42,1.23-1.45.2-5.29-.77-7.66-.74-1.81-3-4.19-4.64-4.3C185.65,208.77,178.05,209,169.17,209Zm95.7.27c-9.15,0-17.26-.19-25.35.09-3.53.13-7.34,9.45-5,11.93,5.38,5.58,11,10.93,17.21,17.05Zm-15.18,30.93c-6.51-6.11-12.23-11.68-18.22-17-2.78-2.46-12.34,1.75-12.43,5.44-.19,7.45-.06,14.9-.06,23.24Zm-35.36,12.24c0-8.69.11-16.15-.05-23.61-.08-3.67-9.55-8.1-12.27-5.66-5.9,5.3-11.47,10.94-17.6,16.85Zm-45.66-48.82c9.06,0,17.19.17,25.31-.09,3.22-.1,7.34-9.32,5.19-11.54-5.52-5.69-11.35-11.1-17.61-17.15Z"/><path class="cls-4" d="M260.7,155.33c-11.6-9.11-24.38-13.83-38.91-15.58,2.34-25.36,4.65-50.22,7-75.63,31.43,2.6,58.52,13.5,82.93,32.61Zm.95-4.32,47-54c-23.12-17.57-48.59-27.95-78-30.63-2.24,24.32-4.41,47.87-6.43,69.84Z"/><path class="cls-4" d="M364,218.64c-3.23,30.5-14.94,56.62-35.39,79.84l-60.17-48.32a68.07,68.07,0,0,0,16.92-38.24Zm-2.34,1.86-72.39-6.21L272.94,251.1l55.38,44.48C347.2,273.62,358.18,249.07,361.64,220.5Z"/><path class="cls-4" d="M164.62,161.25c-12.45,16.65-13.53,19-18.13,40.18l-77.07-6.55C72.1,163.8,83.81,137,104.66,113.11ZM104.93,116c-19.23,22.62-30.27,47.85-33.21,77l73.21,6.23a70.73,70.73,0,0,1,16.8-37.62Z"/><path class="cls-4" d="M364.24,194.76l-78.8,6.71a68.26,68.26,0,0,0-17.08-38.93l60.94-49C349.86,137.08,361.25,163.71,364.24,194.76Zm-2.38-1.85c-3-29-13.85-54-32.81-76.45l-57.7,46.37c9.21,10.81,14.06,22.94,16.12,36.43Z"/><path class="cls-4" d="M69.58,218.53l77.15-6.63c2,14.54,7.24,27.45,17.62,38.76L105,298.36C84.55,275.37,72.92,249.23,69.58,218.53ZM72,220.36c3.34,28.62,14.42,53.13,33.21,75.14l56.11-45.07a70.11,70.11,0,0,1-16.37-36.31Z"/><path class="cls-4" d="M171.47,258.5c6.94,3.56,12.74,7.16,19,9.58s13,3.65,20.39,5.63c-2.21,23.81-4.46,48.11-6.79,73.25-30.68-2.64-57.44-13.25-81.7-32.12Zm-46,56.07c22.87,17.22,47.85,27.25,76.73,30.17,2.19-23.49,4.34-46.52,6.36-68.2l-37.36-14.46C156.67,278.69,141.31,296.32,125.42,314.57Z"/><path class="cls-4" d="M310.93,315c-24,18.79-50.92,29.33-82.26,32.12-2.31-24.76-4.58-49.2-6.9-74.18,14.62-1.62,27.35-6.47,39-15.55Zm-3-.27-46.18-53L224.22,276.5c2.07,22.13,4.22,45.12,6.39,68.39C259.81,341.89,285.07,332,307.89,314.71Z"/><path class="cls-3" d="M232.82,206.07c0,8.69-7.4,15.77-16.36,15.62-8.79-.16-15.91-7.11-15.91-15.54A15.87,15.87,0,0,1,217,190.56C225.81,190.71,232.8,197.53,232.82,206.07Zm-2.15.29a14,14,0,1,0-14.37,13.26A13.79,13.79,0,0,0,230.67,206.36Z"/><path class="cls-6" d="M214.32,160.28c0,8.38.15,15.86-.06,23.33-.1,3.68-9.75,7.75-12.52,5.25-5.91-5.35-11.54-11-17.78-17Zm-26.75,12.38c5.35,5.06,9.73,9.34,14.27,13.45,2.75,2.49,10,.22,10.2-3.32.33-6.23.09-12.48.09-19.46Z"/><path class="cls-6" d="M252.45,174.51c4.31,10.45,8.11,19.65,12.22,29.63-8.75,0-16.49.14-24.22-.06-3.89-.1-8.18-9.25-5.59-12C240.32,186.33,246.08,180.84,252.45,174.51Zm9.06,27.56c-3.3-8-6.33-15.38-9.84-23.89-5.14,5.17-9.76,9.46-13.84,14.19-1,1.19-.92,4-.21,5.66s2.76,3.74,4.36,3.86C248.16,202.33,254.39,202.07,261.51,202.07Z"/><path class="cls-6" d="M219.45,160l29.86,12.37c-6.22,6-11.67,11.54-17.42,16.75-2.58,2.33-12.23-1.49-12.35-4.89C219.26,176.49,219.45,168.72,219.45,160Zm26.82,13.33-24.76-10.21c0,7.1-.33,13.11.21,19,.15,1.65,2.6,3.68,4.47,4.43A7,7,0,0,0,232,186C236.67,182.37,240.9,178.2,246.27,173.35Z"/><path class="cls-6" d="M169.17,209c8.88,0,16.48-.26,24,.2,1.69.11,3.9,2.49,4.64,4.3,1,2.37,2,6.21.77,7.66-5,5.9-10.87,11.13-17.24,17.42C177.15,228.37,173.35,219.18,169.17,209Zm13,26c5.27-5.3,9.94-9.74,14.29-14.45,2.47-2.67-.68-9.35-4.45-9.47-6.18-.2-12.38,0-19.72,0C175.66,219.17,178.67,226.46,182.21,235.06Z"/><path class="cls-6" d="M264.87,209.3l-13.09,29.07c-6.21-6.12-11.83-11.47-17.21-17.05-2.39-2.48,1.42-11.8,5-11.93C247.61,209.11,255.72,209.3,264.87,209.3ZM251,235l10.7-23.74c-7.51,0-13.94-.32-20.28.21-1.64.14-3.55,2.76-4.37,4.64a5.77,5.77,0,0,0,.64,5.15C241.52,225.71,245.85,229.8,251,235Z"/><path class="cls-6" d="M249.69,240.23,219,251.93c0-8.34-.13-15.79.06-23.24.09-3.69,9.65-7.9,12.43-5.44C237.46,228.55,243.18,234.12,249.69,240.23Zm-3.41-.93c-5.68-5.08-10.31-9.57-15.4-13.5-1.19-.92-4.19-.41-5.95.33-1.55.65-3.5,2.48-3.59,3.89-.4,5.95-.17,11.93-.17,18.87Z"/><path class="cls-6" d="M214.33,252.47l-29.92-12.42c6.13-5.91,11.7-11.55,17.6-16.85,2.72-2.44,12.19,2,12.27,5.66C214.44,236.32,214.33,243.78,214.33,252.47ZM187.46,239.1l24.7,10.17c0-7.05.27-13.21-.2-19.32-.12-1.49-2.44-3.29-4.17-4.06-1.54-.69-4.32-.89-5.43,0C197.45,229.79,192.94,234.16,187.46,239.1Z"/><path class="cls-4" d="M168.67,203.65l12.89-28.78c6.26,6,12.09,11.46,17.61,17.15,2.15,2.22-2,11.44-5.19,11.54C185.86,203.82,177.73,203.65,168.67,203.65Zm3.16-1.93c7.5,0,14,.17,20.58-.07,3.09-.12,6.44-6.82,4.43-9-4.47-4.77-9.38-9.16-14.59-14.17C178.62,186.61,175.44,193.7,171.83,201.72Z"/><path class="cls-2" d="M216.34,218.12c-6.68-.21-12.13-5.59-12.13-12a11.7,11.7,0,0,1,3.66-8.49,12.6,12.6,0,0,1,8.82-3.58h.13a12.56,12.56,0,0,1,9,3.79,11.88,11.88,0,0,1,3.4,8.5,12.26,12.26,0,0,1-12.43,11.78Z"/><path class="cls-3" d="M216.69,192.55v3h.11a11.09,11.09,0,0,1,7.89,3.34,10.3,10.3,0,0,1,3,7.42,10.76,10.76,0,0,1-10.93,10.31h-.35c-5.89-.18-10.68-4.89-10.68-10.5a10.21,10.21,0,0,1,3.21-7.41,11.1,11.1,0,0,1,7.77-3.16v-3m0,0a13.54,13.54,0,1,0-.39,27.07h.44a13.54,13.54,0,1,0,.09-27.07Z"/><path class="cls-2" d="M205.13,189.16a6.72,6.72,0,0,1-4.63-1.57c-3.17-2.87-6.3-5.86-9.62-9-1.49-1.43-3-2.91-4.68-4.46l-2.32-2.19,30.25-11.49v2.9c0,2.1,0,4.13.05,6.12,0,4.65.09,9-.14,13.45C213.84,186.64,209.27,189.16,205.13,189.16Z"/><path class="cls-3" d="M212.13,163.33c0,7,.24,13.23-.09,19.46-.13,2.5-3.8,4.37-6.91,4.37a4.87,4.87,0,0,1-3.29-1c-4.54-4.11-8.92-8.39-14.27-13.45l24.56-9.33m4-5.8-5.42,2.06-2.39.91-22.17,8.42-6,2.27,4.63,4.38L189.5,180c3.33,3.17,6.47,6.17,9.66,9a8.67,8.67,0,0,0,6,2.09c6.47,0,10.7-4.23,10.91-8.15.23-4.48.19-8.9.14-13.58,0-2-.05-4-.05-6.1v-5.8Z"/><path class="cls-2" d="M250.56,204.15c-3.5,0-6.19-.09-8.72-.27-2.7-.2-5.21-3.13-6.05-5s-1.25-5.71.53-7.77c3-3.47,6.29-6.72,9.78-10.16,1.34-1.33,2.72-2.69,4.15-4.13l2.12-2.13,12.13,29.43h-3c-2,0-3.89,0-5.75,0S252.26,204.15,250.56,204.15Z"/><path class="cls-3" d="M251.67,178.18c3.51,8.51,6.54,15.86,9.84,23.89-3.87,0-7.47.08-10.95.08-2.92,0-5.76-.06-8.58-.26-1.6-.12-3.64-2.22-4.36-3.86s-.81-4.47.21-5.66c4.08-4.73,8.7-9,13.84-14.19m1.4-7.09-4.24,4.27c-1.42,1.43-2.8,2.79-4.14,4.11-3.52,3.47-6.84,6.75-9.89,10.29-2.49,2.89-1.84,7.59-.84,9.87s4,6,7.74,6.25c2.58.18,5.31.27,8.86.27,1.71,0,3.44,0,5.23,0s3.75,0,5.72,0h6l-2.28-5.53-9.85-23.88-2.29-5.57Z"/><path class="cls-2" d="M228.45,189a8.31,8.31,0,0,1-3-.52c-2.22-.9-5.47-3.39-5.71-6.11a129.35,129.35,0,0,1-.27-13.45c0-1.85,0-3.76,0-5.77v-3L250,172.7l-2.35,2.13c-1.52,1.38-3,2.7-4.33,4-3.42,3.15-6.64,6.13-10,8.8A8.27,8.27,0,0,1,228.45,189Z"/><path class="cls-3" d="M221.51,163.14l24.76,10.21c-5.37,4.85-9.6,9-14.26,12.68a6.11,6.11,0,0,1-3.56,1,6.26,6.26,0,0,1-2.26-.38c-1.87-.75-4.32-2.78-4.47-4.43-.54-5.93-.21-11.94-.21-19m-4-6v6c0,2,0,3.9,0,5.74a128.25,128.25,0,0,0,.28,13.66c.34,3.79,4.34,6.73,6.95,7.78a10.93,10.93,0,0,0,9.79-1.14c3.46-2.71,6.71-5.72,10.15-8.9,1.37-1.27,2.8-2.59,4.32-4l4.7-4.25-5.86-2.41L223,159.44l-5.52-2.27Z"/><path class="cls-2" d="M169.34,209.09h3c2.24,0,4.38,0,6.45,0l5.64,0c3,0,5.45,0,7.7.11,2.62.09,5.17,2.19,6.5,5.37,1.2,2.87.95,5.73-.65,7.46-3.06,3.31-6.29,6.51-9.71,9.89-1.49,1.48-3,3-4.63,4.61l-2.12,2.13Z"/><path class="cls-3" d="M184.42,211c2.6,0,5.12,0,7.63.1,3.77.12,6.92,6.8,4.45,9.47-4.35,4.71-9,9.15-14.29,14.45-3.54-8.6-6.55-15.89-9.88-24,4.35,0,8.3-.05,12.09-.05m0-4-5.65,0c-2.06,0-4.2,0-6.44,0h-6l2.28,5.52,2.07,5,7.81,18.93,2.3,5.56,4.24-4.26c1.59-1.6,3.13-3.13,4.63-4.61,3.43-3.39,6.67-6.6,9.76-9.94,2.14-2.31,2.53-6,1-9.6-1.62-3.89-4.87-6.48-8.28-6.59-2.27-.07-4.73-.1-7.76-.1Z"/><path class="cls-2" d="M249.53,236.39c-1.44-1.46-2.81-2.84-4.14-4.16-3.45-3.44-6.43-6.42-9.25-9.67-1.62-1.86-1.8-5.32-1-7.26s3.16-5.59,6-5.83c2.61-.22,5.39-.32,9-.32,1.75,0,3.54,0,5.38,0s3.95.05,6.05.05h3.09l-13.17,29.23Z"/><path class="cls-3" d="M250.23,211.15c3.59,0,7.35.1,11.43.1L251,235c-5.11-5.19-9.44-9.28-13.31-13.74a5.77,5.77,0,0,1-.64-5.15c.82-1.88,2.73-4.5,4.37-4.64,2.9-.24,5.82-.31,8.85-.31m0-4c-3.69,0-6.52.1-9.19.33-4.68.4-7.4,6.34-7.69,7a9.68,9.68,0,0,0,1.28,9.38c2.87,3.3,6,6.44,9.36,9.77l4.12,4.15,4.1,4.16,2.4-5.33,8-17.67,2.73-6.07,2.54-5.64h-6.18c-2.08,0-4.09,0-6-.05s-3.64,0-5.4,0Z"/><path class="cls-2" d="M219.17,248.89c0-1.91,0-3.74,0-5.52,0-4.68-.08-9.1.21-13.48.17-2.52,3-4.83,4.81-5.61a13.2,13.2,0,0,1,4.73-1,5.13,5.13,0,0,1,3.22.91c3.75,2.89,7.29,6.12,11,9.53,1.44,1.31,2.92,2.66,4.49,4.06l2.44,2.19-30.89,11.79Z"/><path class="cls-3" d="M228.88,225.31a3.37,3.37,0,0,1,2,.49c5.09,3.93,9.72,8.42,15.4,13.5l-25.11,9.59c0-6.94-.23-12.92.17-18.87.09-1.41,2-3.24,3.59-3.89a11,11,0,0,1,3.95-.82m0-4h0a15,15,0,0,0-5.5,1.13c-2.21.92-5.79,3.73-6,7.31-.3,4.46-.26,8.92-.22,13.64,0,1.77,0,3.6,0,5.5v5.81l5.42-2.08L247.71,243l6.14-2.35-4.9-4.37c-1.56-1.39-3-2.74-4.47-4-3.77-3.44-7.34-6.69-11.16-9.64a7.08,7.08,0,0,0-4.44-1.32Z"/><path class="cls-2" d="M183.76,239.75l2.36-2.13c1.5-1.35,2.92-2.66,4.3-3.93,3.64-3.34,7.08-6.5,10.7-9.37a5.85,5.85,0,0,1,3.59-1,10.07,10.07,0,0,1,3.89.77c1.76.78,5.14,3,5.35,5.74.35,4.51.3,9,.25,13.83,0,1.82,0,3.7,0,5.64v3Z"/><path class="cls-3" d="M204.71,225.29a8,8,0,0,1,3.08.6c1.73.77,4.05,2.57,4.17,4.06.47,6.11.2,12.27.2,19.32l-24.7-10.17c5.48-4.94,10-9.31,14.9-13.22a4,4,0,0,1,2.35-.59m0-4h0a7.58,7.58,0,0,0-4.84,1.46c-3.68,2.92-7.14,6.1-10.8,9.47-1.38,1.26-2.8,2.57-4.29,3.92l-4.71,4.25,5.87,2.41,22.75,9.37,1.94.8,5.53,2.27v-6c0-1.93,0-3.8,0-5.62.05-4.84.1-9.41-.25-14-.29-3.68-4.24-6.4-6.54-7.42a12.09,12.09,0,0,0-4.7-.94Z"/><path class="cls-2" d="M184.14,203.78l-5.82,0c-2.1,0-4.25,0-6.49,0h-3.09l12.85-28.61,2,2c1.53,1.47,3,2.89,4.52,4.29,3.57,3.37,6.94,6.55,10.14,9.95,1.39,1.48,1.53,3.93.38,6.71s-3.47,5.52-6.19,5.62C190.06,203.74,187.4,203.78,184.14,203.78Z"/><path class="cls-3" d="M182.25,178.52c5.21,5,10.12,9.4,14.59,14.17,2,2.14-1.34,8.84-4.43,9-2.73.1-5.47.13-8.27.13-3.9,0-7.94-.06-12.31-.06,3.61-8,6.79-15.11,10.42-23.2m-1.32-6.82-2.33,5.18-10.42,23.2-2.53,5.64h6.18c2.24,0,4.38,0,6.47,0l5.84,0c3.29,0,6,0,8.42-.13,3.86-.15,6.71-3.79,8-6.86,1.46-3.54,1.17-6.76-.78-8.84-3.23-3.45-6.63-6.65-10.22-10-1.47-1.38-3-2.8-4.51-4.27l-4.09-3.94Z"/></g></g></svg>