<svg xmlns="http://www.w3.org/2000/svg" viewBox="0 0 426.14 409.17"><defs><style>.cls-1,.cls-3,.cls-5,.cls-6{fill:#fff;}.cls-1,.cls-3,.cls-6{stroke:#fff;stroke-miterlimit:10;}.cls-1{stroke-width:3px;}.cls-2{fill:#1300d4;}.cls-3{stroke-width:2px;}.cls-4{fill:none;}</style></defs><g id="Layer_2" data-name="Layer 2"><g id="Layer_1-2" data-name="Layer 1"><path class="cls-1" d="M196,372.14c-35.15-3.75-65.9-15.9-92.85-36.46-.59.22-1.13.26-1.26.5-8.22,15.14-22.09,14.54-38,11.68,0-6.91-.16-14.34.14-21.75.06-1.49,1.63-3.16,2.93-4.3,3.61-3.18,7.45-6.12,11.47-9.38-22.78-26.63-36.1-56.67-40.23-91.11-4.86.35-9.52,1.07-14.15.89a12.64,12.64,0,0,1-7.32-2.77c-5.13-4.56-9.77-9.63-14.63-14.52,4.64-4.7,9.52-9.28,13.93-14.24,2.69-3,5.57-3.88,9.5-3.26s7.9.72,12.4,1.09A166.63,166.63,0,0,1,77.68,96c-.31-.69-.36-1.2-.61-1.32C60.7,86.86,64.91,72.91,65.67,59.8c2,0,3.81,0,5.63,0,6.09-.09,12.83-1.8,18.09.15S98.14,67.49,103,72c26.79-20.48,57.63-32.85,92.79-36.57-.3-4.29-.94-8.41-.75-12.49a10.76,10.76,0,0,1,2.61-6.59c4.9-5,10.29-9.61,15.42-14.31,4.71,4.31,9.18,8.79,14.1,12.76,3.63,2.91,5,6,4,10.49-.67,3-.59,6.16-.91,10C265.42,39,296.94,51.13,324.36,72.4c.77-.46,1.45-.63,1.68-1C331.8,61,340.93,58.51,352.28,60.54c2.88.51,5.94.07,9.76.07,0,7.06.17,14.55-.12,22a8.22,8.22,0,0,1-2.64,5c-3,2.81-6.33,5.23-10.11,8.28,22.64,26.88,36.05,57.43,39.71,92.5,4.43-.35,8.53-1.08,12.57-.86a12.79,12.79,0,0,1,7.32,2.7c5.15,4.56,9.8,9.64,15.14,15a34.53,34.53,0,0,0-4.08,3.4c-8,9-15.67,18.68-29.1,12.59-5.16,16.64-8.72,33-15.39,48.17S358.87,298.46,350,313.68c2,1.66,5.62,4.09,8.45,7.16a13.2,13.2,0,0,1,3.41,7.34c.48,6.36.16,12.78.16,20.57-8.67,0-16.77.13-24.85-.13-1.34,0-2.81-1.64-3.89-2.8-3-3.26-5.89-6.67-9.16-10.41-27.6,21-58.65,33.25-94,36.8.43,4.84,1.15,9.34,1.07,13.82a10.48,10.48,0,0,1-2.51,6.62c-4.91,5.05-10.3,9.66-15.56,14.49-4.74-4.32-9.35-8.9-14.39-13-3.3-2.67-4.45-5.52-3.78-9.54S195.65,376.67,196,372.14Zm-94-40c28.51,22.29,60.3,34.74,96.21,38.16-.44,5.56-.95,10.63-1.18,15.71-.07,1.51.1,3.54,1.07,4.49,4.72,4.66,9.74,9,14.83,13.67,4.7-4.25,9.13-7.76,12.86-11.85a12.58,12.58,0,0,0,3-7.5c.17-4.67-.65-9.37-1.09-14.47,36.39-3.28,68.34-15.86,96.57-37.8,3.51,4,6.62,7.63,9.9,11.15,1.08,1.17,2.55,2.75,3.9,2.81,6.95.28,13.93.13,21.7.13,0-6.6.35-12.09-.16-17.5a13,13,0,0,0-3.39-7.33c-3.17-3.29-7.08-5.93-10.95-9.06,24-27.27,37.61-58.31,41.49-93.59,5.25.39,9.94.84,14.65,1,1.58.05,3.71-.1,4.7-1,4.87-4.54,9.44-9.37,14.22-14.21a58.14,58.14,0,0,1-4.64-4.91c-6.21-8.42-13.89-13.12-25.06-9.67a15,15,0,0,1-3.72,0c-3.43-35.72-17-67.18-40.85-94.75,3.88-3.15,7.45-5.86,10.77-8.83,1.28-1.14,2.77-2.83,2.85-4.33.31-6.35.13-12.71.13-19.09-13-1.54-25.36-4.16-32.37,9.52-.51,1-1.14,1.91-1.86,3.11-29-22.89-61.29-35.53-97.79-38.91.45-5,1-9.32,1.17-13.68.06-1.67-.22-3.88-1.3-5C223.15,13.92,218.2,9.66,213,5c-5.11,4.67-11.58,8.3-14.22,13.66-2.54,5.16-1.13,12.12-1.47,18.71a178.82,178.82,0,0,0-95.11,37.93c-3.41-3.86-6.47-7.56-9.81-11-1.18-1.22-3-2.55-4.57-2.62-6.6-.29-13.21-.13-20.82-.13,0,6.86-.24,12.67.13,18.45a9.93,9.93,0,0,0,2.81,6c3.43,3.3,7.38,6.1,11.29,9.25-24.44,27.91-37.9,59.59-41.4,95.57-5.53-.46-10.42-1-15.33-1.22-1.6-.08-3.79-.08-4.77.83C14.73,195,10,199.93,4,206c5.83,5,10.4,11.05,16.54,13.54,5.44,2.21,12.61.47,19.65.47,3.65,34.46,17.51,65.58,41.24,92.71-4.51,3.64-8.49,6.75-12.33,10-1.21,1-2.83,2.45-2.89,3.75-.29,6.66-.13,13.35-.13,19.07,15.32,4.2,27,2.11,34.3-11A27.46,27.46,0,0,1,102.08,332.16Z"/><path class="cls-2" d="M102.08,332.16a27.46,27.46,0,0,0-1.69,2.36c-7.32,13.15-19,15.24-34.3,11,0-5.72-.16-12.41.13-19.07.06-1.3,1.68-2.72,2.89-3.75,3.84-3.27,7.82-6.38,12.33-10C57.71,285.59,43.85,254.47,40.2,220c-7,0-14.21,1.74-19.65-.47C14.41,217.05,9.84,211,4,206c6-6.07,10.72-11,15.73-15.65,1-.91,3.17-.91,4.77-.83,4.91.26,9.8.76,15.33,1.22,3.5-36,17-67.66,41.4-95.57-3.91-3.15-7.86-6-11.29-9.25a9.93,9.93,0,0,1-2.81-6C66.77,74.17,67,68.36,67,61.5c7.61,0,14.22-.16,20.82.13,1.58.07,3.39,1.4,4.57,2.62,3.34,3.44,6.4,7.14,9.81,11a178.82,178.82,0,0,1,95.11-37.93c.34-6.59-1.07-13.55,1.47-18.71,2.64-5.36,9.11-9,14.22-13.66,5.19,4.71,10.14,9,14.74,13.55,1.08,1.08,1.36,3.29,1.3,5-.17,4.36-.72,8.71-1.17,13.68,36.5,3.38,68.78,16,97.79,38.91.72-1.2,1.35-2.13,1.86-3.11,7-13.68,19.34-11.06,32.37-9.52,0,6.38.18,12.74-.13,19.09-.08,1.5-1.57,3.19-2.85,4.33-3.32,3-6.89,5.68-10.77,8.83,23.87,27.57,37.42,59,40.85,94.75a15,15,0,0,0,3.72,0c11.17-3.45,18.85,1.25,25.06,9.67a58.14,58.14,0,0,0,4.64,4.91c-4.78,4.84-9.35,9.67-14.22,14.21-1,.93-3.12,1.08-4.7,1-4.71-.18-9.4-.63-14.65-1-3.88,35.28-17.52,66.32-41.49,93.59,3.87,3.13,7.78,5.77,10.95,9.06a13,13,0,0,1,3.39,7.33c.51,5.41.16,10.9.16,17.5-7.77,0-14.75.15-21.7-.13-1.35-.06-2.82-1.64-3.9-2.81-3.28-3.52-6.39-7.17-9.9-11.15-28.23,21.94-60.18,34.52-96.57,37.8.44,5.1,1.26,9.8,1.09,14.47a12.58,12.58,0,0,1-3,7.5c-3.73,4.09-8.16,7.6-12.86,11.85-5.09-4.64-10.11-9-14.83-13.67-1-.95-1.14-3-1.07-4.49.23-5.08.74-10.15,1.18-15.71C162.38,366.9,130.59,354.45,102.08,332.16Zm56.12-128c-.13,29.33,24,53,54.33,53.25,30.55.26,55.53-23.45,55.56-52.72s-24.3-52.7-54.73-52.89S158.33,175,158.2,204.16Zm99.17-50.64,51-58.6c-24.41-19.11-51.5-30-82.93-32.61-2.35,25.41-4.65,50.27-7,75.63C233,139.69,245.77,144.41,257.37,153.52Zm103.29,63.31L282,210.11a68.07,68.07,0,0,1-16.92,38.24l60.17,48.32C345.71,273.45,357.42,247.33,360.66,216.83ZM161.29,159.44l-60-48.14C80.48,135.21,68.77,162,66.1,193.07l77.06,6.55C147.76,178.48,148.84,176.09,161.29,159.44ZM360.91,193c-3-31-14.38-57.68-34.94-81.19l-60.94,49a68.19,68.19,0,0,1,17.08,38.93ZM66.25,216.72c3.34,30.7,15,56.84,35.38,79.83L161,248.85c-10.38-11.31-15.64-24.22-17.62-38.76Zm141.4-78.8c-2.37-25.35-4.7-50.2-7.07-75.53A150.47,150.47,0,0,0,119,94.61l50.46,58C180.76,144,193.44,139.48,207.65,137.92ZM168.14,256.69,119.07,313c24.27,18.87,51,29.48,81.71,32.12,2.32-25.14,4.57-49.44,6.78-73.25-7.36-2-14.12-3.21-20.39-5.63S175.08,260.25,168.14,256.69ZM307.6,313.17l-50.18-57.61c-11.63,9.08-24.36,13.93-39,15.55,2.32,25,4.6,49.42,6.9,74.18C256.68,342.5,283.62,332,307.6,313.17Z"/><path class="cls-3" d="M158.2,204.16c.13-29.19,24.74-52.55,55.16-52.36s54.77,23.7,54.73,52.89-25,53-55.56,52.72C182.22,257.15,158.07,233.49,158.2,204.16Zm2.07-.29c-.45,27.88,22.84,51,51.82,51.45,29.13.45,53.26-21.76,53.83-49.52.57-28.54-22.75-51.67-52.4-52C184.45,153.54,160.72,175.84,160.27,203.87Z"/><path class="cls-3" d="M207.65,137.92c-14.21,1.56-26.89,6.05-38.24,14.66L119,94.61a150.47,150.47,0,0,1,81.63-32.22C203,87.72,205.28,112.57,207.65,137.92Zm-2.36-2.4c-2.19-23.42-4.4-47-6.64-71C169.6,67.72,144.49,77.64,122,94.94l47.24,54.24c6.27-3.08,11.49-6.15,17.11-8.27C192.16,138.72,198.33,137.45,205.29,135.52Z"/><path class="cls-4" d="M160.27,203.87c.45-28,24.18-50.33,53.25-50,29.65.3,53,23.43,52.4,52-.57,27.76-24.7,50-53.83,49.52C183.11,254.88,159.82,231.75,160.27,203.87Zm69.22.39c0-8.54-7-15.36-15.87-15.51s-16.4,6.87-16.4,15.59c0,8.43,7.12,15.38,15.91,15.54C222.1,220,229.52,213,229.49,204.26ZM211,158.47,180.63,170c6.25,6,11.87,11.66,17.78,17,2.77,2.5,12.42-1.57,12.52-5.25C211.14,174.33,211,166.85,211,158.47Zm38.13,14.23c-6.37,6.33-12.13,11.82-17.59,17.58-2.59,2.74,1.7,11.89,5.59,12,7.73.2,15.47.06,24.22.06C257.23,192.35,253.44,183.15,249.12,172.7Zm-33-14.49c0,8.7-.19,16.47.09,24.23.12,3.4,9.78,7.22,12.35,4.89,5.75-5.21,11.2-10.73,17.42-16.75Zm-50.28,49c4.18,10.15,8,19.34,12.2,29.58,6.37-6.29,12.23-11.52,17.24-17.42,1.23-1.45.2-5.29-.77-7.66-.74-1.81-2.95-4.19-4.64-4.3C182.32,207,174.72,207.22,165.84,207.22Zm95.7.27c-9.15,0-17.26-.19-25.35.09-3.53.13-7.34,9.45-4.95,11.93,5.38,5.58,11,10.93,17.21,17.05Zm-15.18,30.93c-6.51-6.11-12.23-11.68-18.22-17-2.78-2.46-12.34,1.75-12.43,5.44-.19,7.45-.06,14.9-.06,23.24ZM211,250.66c0-8.69.11-16.15-.05-23.61-.08-3.67-9.55-8.1-12.26-5.66-5.91,5.3-11.48,10.94-17.61,16.85Zm-45.66-48.82c9.06,0,17.19.17,25.31-.09,3.22-.1,7.34-9.32,5.19-11.54-5.52-5.69-11.35-11.1-17.61-17.15Z"/><path class="cls-3" d="M257.37,153.52c-11.6-9.11-24.37-13.83-38.91-15.58,2.35-25.36,4.65-50.22,7-75.63,31.43,2.6,58.52,13.5,82.93,32.61Zm.95-4.32c15-17.24,30.85-35.41,47-54-23.12-17.57-48.59-27.95-78-30.63-2.24,24.32-4.4,47.87-6.43,69.84Z"/><path class="cls-3" d="M360.66,216.83c-3.24,30.5-15,56.62-35.4,79.84l-60.17-48.32A68.07,68.07,0,0,0,282,210.11Zm-2.35,1.86-72.39-6.21-16.31,36.81L325,293.77C343.87,271.81,354.85,247.26,358.31,218.69Z"/><path class="cls-3" d="M161.29,159.44c-12.45,16.65-13.53,19-18.13,40.18L66.1,193.07c2.67-31.08,14.38-57.86,35.23-81.77ZM101.6,114.18c-19.23,22.62-30.27,47.85-33.2,77l73.2,6.23a70.73,70.73,0,0,1,16.8-37.62Z"/><path class="cls-3" d="M360.91,193l-78.8,6.71A68.19,68.19,0,0,0,265,160.73l60.94-49C346.53,135.27,357.92,161.9,360.91,193Zm-2.38-1.85c-3-29-13.85-54-32.81-76.45L268,161c9.21,10.81,14.06,22.94,16.12,36.43Z"/><path class="cls-3" d="M66.25,216.72l77.15-6.63c2,14.54,7.24,27.45,17.62,38.76l-59.39,47.7C81.22,273.56,69.59,247.42,66.25,216.72Zm2.39,1.83c3.34,28.62,14.42,53.13,33.21,75.14L158,248.62a70.11,70.11,0,0,1-16.37-36.31Z"/><path class="cls-3" d="M168.14,256.69c6.94,3.56,12.74,7.16,19,9.58s13,3.65,20.39,5.63c-2.21,23.81-4.46,48.11-6.78,73.25-30.69-2.64-57.44-13.25-81.71-32.12Zm-46,56.07C145,330,169.94,340,198.82,342.93c2.19-23.49,4.34-46.52,6.36-68.2l-37.36-14.46Z"/><path class="cls-3" d="M307.6,313.17c-24,18.79-50.92,29.33-82.26,32.12-2.3-24.76-4.58-49.21-6.9-74.18,14.62-1.62,27.35-6.47,39-15.55Zm-3-.27-46.18-53-37.49,14.81c2.07,22.13,4.22,45.12,6.39,68.39C256.48,340.08,281.74,330.23,304.56,312.9Z"/><path class="cls-5" d="M229.49,204.26c0,8.69-7.39,15.77-16.36,15.62-8.79-.16-15.91-7.11-15.91-15.54,0-8.72,7.39-15.74,16.4-15.59S229.47,195.72,229.49,204.26Zm-2.15.29A14,14,0,1,0,213,217.81,13.79,13.79,0,0,0,227.34,204.55Z"/><path class="cls-6" d="M211,158.47c0,8.38.15,15.86-.06,23.33-.1,3.68-9.75,7.75-12.52,5.25-5.91-5.36-11.53-11-17.78-17Zm-26.75,12.38c5.35,5.06,9.73,9.34,14.27,13.45,2.75,2.49,10,.22,10.2-3.32.33-6.23.09-12.48.09-19.46Z"/><path class="cls-6" d="M249.12,172.7c4.32,10.45,8.11,19.65,12.22,29.63-8.75,0-16.49.14-24.22-.06-3.89-.1-8.18-9.25-5.59-12C237,184.52,242.75,179,249.12,172.7Zm9.07,27.56-9.85-23.89c-5.14,5.17-9.76,9.46-13.84,14.19-1,1.19-.92,4-.2,5.66s2.75,3.74,4.36,3.86C244.83,200.52,251.06,200.26,258.19,200.26Z"/><path class="cls-6" d="M216.12,158.21,246,170.58c-6.22,6-11.67,11.54-17.42,16.75-2.57,2.33-12.23-1.49-12.35-4.89C215.93,174.68,216.12,166.91,216.12,158.21Zm26.82,13.33-24.76-10.21c0,7.1-.33,13.11.21,19,.15,1.65,2.6,3.68,4.47,4.43a7,7,0,0,0,5.82-.58C233.34,180.56,237.57,176.39,242.94,171.54Z"/><path class="cls-6" d="M165.84,207.22c8.88,0,16.48-.26,24,.2,1.69.11,3.9,2.49,4.64,4.3,1,2.37,2,6.21.77,7.66-5,5.9-10.87,11.13-17.24,17.42C173.82,226.56,170,217.37,165.84,207.22Zm13,26c5.27-5.3,9.94-9.74,14.29-14.45,2.47-2.67-.68-9.35-4.45-9.47-6.18-.2-12.38-.05-19.72-.05C172.33,217.36,175.34,224.65,178.88,233.25Z"/><path class="cls-6" d="M261.54,207.49l-13.09,29.07c-6.2-6.12-11.83-11.47-17.21-17.05-2.39-2.48,1.42-11.8,4.95-11.93C244.28,207.3,252.39,207.49,261.54,207.49Zm-13.91,25.69,10.7-23.74c-7.51,0-13.94-.32-20.28.21-1.64.14-3.55,2.76-4.37,4.64a5.77,5.77,0,0,0,.64,5.15C238.19,223.9,242.52,228,247.63,233.18Z"/><path class="cls-6" d="M246.36,238.42l-30.71,11.7c0-8.34-.13-15.79.06-23.24.09-3.69,9.65-7.9,12.43-5.44C234.13,226.74,239.85,232.31,246.36,238.42Zm-3.41-.93c-5.68-5.08-10.31-9.57-15.4-13.5-1.19-.92-4.19-.41-6,.33-1.55.65-3.5,2.48-3.59,3.89-.4,5.95-.17,11.93-.17,18.87Z"/><path class="cls-6" d="M211,250.66l-29.92-12.42c6.13-5.91,11.7-11.55,17.61-16.85,2.71-2.44,12.18,2,12.26,5.66C211.11,234.51,211,242,211,250.66Zm-26.87-13.37,24.7,10.17c0-7.05.27-13.21-.2-19.32-.12-1.49-2.44-3.29-4.17-4.06-1.54-.69-4.32-.89-5.43,0C194.12,228,189.61,232.35,184.13,237.29Z"/><path class="cls-3" d="M165.34,201.84l12.89-28.78c6.26,6.05,12.09,11.46,17.61,17.15,2.15,2.22-2,11.44-5.19,11.54C182.53,202,174.4,201.84,165.34,201.84Zm3.16-1.93c7.5,0,14.05.17,20.58-.07,3.09-.12,6.44-6.82,4.43-9-4.47-4.77-9.37-9.16-14.59-14.17C175.29,184.8,172.11,191.89,168.5,199.91Z"/><path class="cls-2" d="M227.34,204.55a14,14,0,1,1-13.84-13.81A13.79,13.79,0,0,1,227.34,204.55Z"/><path class="cls-2" d="M184.24,170.85l24.56-9.33c0,7,.24,13.23-.09,19.46-.19,3.54-7.45,5.81-10.2,3.32C194,180.19,189.59,175.91,184.24,170.85Z"/><path class="cls-2" d="M258.19,200.26c-7.13,0-13.36.26-19.53-.18-1.61-.12-3.65-2.22-4.36-3.86s-.82-4.47.2-5.66c4.08-4.73,8.7-9,13.84-14.19Z"/><path class="cls-2" d="M242.94,171.54c-5.37,4.85-9.6,9-14.26,12.68a7,7,0,0,1-5.82.58c-1.87-.75-4.32-2.78-4.47-4.43-.54-5.93-.21-11.94-.21-19Z"/><path class="cls-2" d="M178.88,233.25c-3.54-8.6-6.55-15.89-9.88-24,7.34,0,13.54-.15,19.72.05,3.77.12,6.92,6.8,4.45,9.47C188.82,223.51,184.15,228,178.88,233.25Z"/><path class="cls-2" d="M247.63,233.18c-5.11-5.19-9.44-9.28-13.31-13.74a5.77,5.77,0,0,1-.64-5.15c.82-1.88,2.73-4.5,4.37-4.64,6.34-.53,12.77-.21,20.28-.21Z"/><path class="cls-2" d="M243,237.49l-25.11,9.59c0-6.94-.23-12.92.17-18.87.09-1.41,2-3.24,3.59-3.89,1.76-.74,4.76-1.25,6-.33C232.64,227.92,237.27,232.41,243,237.49Z"/><path class="cls-2" d="M184.13,237.29c5.48-4.94,10-9.31,14.9-13.22,1.11-.88,3.89-.68,5.43,0,1.73.77,4,2.57,4.17,4.06.47,6.11.2,12.27.2,19.32Z"/><path class="cls-2" d="M168.5,199.91c3.61-8,6.79-15.11,10.42-23.2,5.22,5,10.12,9.4,14.59,14.17,2,2.14-1.34,8.84-4.43,9C182.55,200.08,176,199.91,168.5,199.91Z"/></g></g></svg>