<svg width="172" height="172" viewBox="0 0 172 172" fill="none" xmlns="http://www.w3.org/2000/svg">
<path d="M136.167 0H35.8333C16.0462 0 0 16.0462 0 35.8333V136.167C0 155.954 16.0462 172 35.8333 172H136.167C155.961 172 172 155.954 172 136.167V35.8333C172 16.0462 155.961 0 136.167 0ZM57.3333 136.167H35.8333V57.3333H57.3333V136.167ZM46.5833 48.246C39.6603 48.246 34.0417 42.5843 34.0417 35.604C34.0417 28.6237 39.6603 22.962 46.5833 22.962C53.5063 22.962 59.125 28.6237 59.125 35.604C59.125 42.5843 53.5135 48.246 46.5833 48.246ZM143.333 136.167H121.833V96.0047C121.833 71.8673 93.1667 73.6948 93.1667 96.0047V136.167H71.6667V57.3333H93.1667V69.9825C103.171 51.4495 143.333 50.0807 143.333 87.7272V136.167Z" fill="white"/>
</svg>
