<svg width="172" height="172" viewBox="0 0 172 172" fill="none" xmlns="http://www.w3.org/2000/svg">
<path fill-rule="evenodd" clip-rule="evenodd" d="M32 0C14.3269 0 0 14.3269 0 32V140C0 157.673 14.3269 172 32 172H140C157.673 172 172 157.673 172 140V32C172 14.3269 157.673 0 140 0H32ZM38 38H134C140.6 38 146 43.4 146 50V122C146 128.6 140.6 134 134 134H38C31.4 134 26 128.6 26 122L26.06 50C26.06 43.4 31.4 38 38 38ZM41 70.2326V116.767H131V70.2326L86 97.2326L41 70.2326ZM41 52.2326L86 77L131 52.2326H41Z" fill="white"/>
</svg>
